<svg xmlns="http://www.w3.org/2000/svg" viewBox="0 0 172 40"><defs><style>.a{fill:none;}.b{fill:#fff;}</style></defs><g transform="translate(-183 -20)"><rect class="a" width="172" height="40" transform="translate(183 20)"/><g transform="translate(-5.03)"><path class="b" d="M15.883,35.291A17.665,17.665,0,0,1,.091,19.5a17.963,17.963,0,0,1,0-3.618A17.664,17.664,0,0,1,15.883.091a17.961,17.961,0,0,1,3.618,0A17.665,17.665,0,0,1,35.291,15.883a17.962,17.962,0,0,1,0,3.618A17.665,17.665,0,0,1,19.5,35.291a17.951,17.951,0,0,1-3.618,0ZM15.745,8.232a9.6,9.6,0,0,0-3.453,1.453,9.683,9.683,0,0,0-3.5,4.248,9.608,9.608,0,0,0-.563,1.812,9.752,9.752,0,0,0,0,3.892A9.6,9.6,0,0,0,9.685,23.09a9.683,9.683,0,0,0,4.248,3.5,9.607,9.607,0,0,0,1.812.563,9.75,9.75,0,0,0,3.892,0A9.6,9.6,0,0,0,23.09,25.7a9.682,9.682,0,0,0,3.5-4.248,9.6,9.6,0,0,0,.563-1.812,9.749,9.749,0,0,0,0-3.892q-.019-.091-.039-.181a3.661,3.661,0,0,1-4.039-1.559c-1.149-1.524-1.223-3.442-.236-4.486a9.686,9.686,0,0,0-7.09-1.287Z" transform="translate(190.03 22.309)"/><path class="b" d="M14.349-73.5a9.448,9.448,0,0,1-1.684.127,9.892,9.892,0,0,1-1.709-.127V-90.644l.177-.152H21.566a5.456,5.456,0,0,1,.152,1.367,1.412,1.412,0,0,1-.443,1.152,2.189,2.189,0,0,1-1.405.367H14.324l.025,2.456v1.9h5.773a4.608,4.608,0,0,1,.177,1.38,5.138,5.138,0,0,1-.177,1.431H14.349Zm22.46-4.33-.025,1.57,1.773-.051h6.2a7.637,7.637,0,0,1-.076,1.241,1.9,1.9,0,0,1-2.178,1.621H35.391A1.883,1.883,0,0,1,33.961-74a2.058,2.058,0,0,1-.519-1.481V-90.619l.177-.177H44.178a6.9,6.9,0,0,1,.127,1.355,4.5,4.5,0,0,1-.279,1.507H36.784l.025,1.747v2.608l1.646-.025h4.279a4.254,4.254,0,0,1,.2,1.393,4.254,4.254,0,0,1-.2,1.393H36.809Zm23.549,0-.025,1.57,1.773-.051h6.2a7.636,7.636,0,0,1-.076,1.241,1.9,1.9,0,0,1-2.178,1.621H58.94A1.883,1.883,0,0,1,57.51-74a2.058,2.058,0,0,1-.519-1.481V-90.619l.177-.177H67.727a6.9,6.9,0,0,1,.127,1.355,4.5,4.5,0,0,1-.279,1.507H60.333l.025,1.747v2.608L62-83.6h4.279a4.254,4.254,0,0,1,.2,1.393,4.254,4.254,0,0,1-.2,1.393H60.358Zm25.9,1.443h4.71a7.027,7.027,0,0,1-.1,1.291,1.925,1.925,0,0,1-2.2,1.646H82.515A1.925,1.925,0,0,1,81.071-74a2.029,2.029,0,0,1-.532-1.481V-90.771l.177-.177h1.266a1.945,1.945,0,0,1,1.494.519,2.389,2.389,0,0,1,.481,1.659v12.484Q85.047-76.388,86.262-76.388ZM102.848-73.5V-90.8a8.765,8.765,0,0,1,1.659-.127,10.068,10.068,0,0,1,1.735.127V-73.5a10.07,10.07,0,0,1-1.735.127A8.766,8.766,0,0,1,102.848-73.5Zm22.739-14.484.025,1.874V-73.5a10.171,10.171,0,0,1-1.709.127,10.17,10.17,0,0,1-1.709-.127v-12.61l.025-1.874-1.545.025h-2.811a7.258,7.258,0,0,1-.127-1.418,7.258,7.258,0,0,1,.127-1.418h12.1a5.1,5.1,0,0,1,.177,1.38,1.345,1.345,0,0,1-.43,1.1,2.189,2.189,0,0,1-1.393.355h-1.19Z" transform="translate(227.358 122.386)"/></g></g></svg>